<svg width="182" height="37" viewBox="0 0 182 37" fill="none" xmlns="http://www.w3.org/2000/svg">
<g clip-path="url(#clip0_1_548)">
<path d="M29.08 24.9797C30.686 24.9797 31.988 23.6778 31.988 22.0717C31.988 20.4657 30.686 19.1637 29.08 19.1637C27.474 19.1637 26.172 20.4657 26.172 22.0717C26.172 23.6778 27.474 24.9797 29.08 24.9797Z" fill="black"/>
<path d="M2.908 24.9797C4.51404 24.9797 5.816 23.6778 5.816 22.0717C5.816 20.4657 4.51404 19.1637 2.908 19.1637C1.30196 19.1637 0 20.4657 0 22.0717C0 23.6778 1.30196 24.9797 2.908 24.9797Z" fill="black"/>
<path d="M15.994 29.08C24.0242 29.08 30.534 22.5702 30.534 14.54C30.534 6.50978 24.0242 0 15.994 0C7.96376 0 1.45398 6.50978 1.45398 14.54C1.45398 22.5702 7.96376 29.08 15.994 29.08Z" fill="black"/>
<path d="M21.81 15.7323C24.2191 15.7323 26.172 13.7794 26.172 11.3703C26.172 8.96122 24.2191 7.00829 21.81 7.00829C19.4009 7.00829 17.448 8.96122 17.448 11.3703C17.448 13.7794 19.4009 15.7323 21.81 15.7323Z" fill="#656697"/>
<path d="M9.45094 15.078C11.2577 15.078 12.7224 13.6133 12.7224 11.8065C12.7224 9.99967 11.2577 8.53497 9.45094 8.53497C7.64414 8.53497 6.17944 9.99967 6.17944 11.8065C6.17944 13.6133 7.64414 15.078 9.45094 15.078Z" fill="black" stroke="#656697" stroke-width="0.727"/>
<path d="M20.2106 19.5999C20.2106 19.9245 20.0977 20.2459 19.8785 20.5458C19.6593 20.8457 19.338 21.1182 18.933 21.3477C18.5279 21.5773 18.047 21.7593 17.5179 21.8836C16.9886 22.0078 16.4214 22.0717 15.8486 22.0717C15.2758 22.0717 14.7085 22.0078 14.1793 21.8836C13.6501 21.7593 13.1692 21.5773 12.7642 21.3477C12.3591 21.1182 12.0378 20.8457 11.8186 20.5458C11.5994 20.2459 11.4866 19.9245 11.4866 19.5999H20.2106Z" fill="#656697"/>
<path d="M23.7001 10.2071C24.1017 10.2071 24.4271 9.88159 24.4271 9.48008C24.4271 9.07857 24.1017 8.75308 23.7001 8.75308C23.2986 8.75308 22.9731 9.07857 22.9731 9.48008C22.9731 9.88159 23.2986 10.2071 23.7001 10.2071Z" fill="black"/>
</g>
<g clip-path="url(#clip1_1_548)">
<path d="M48.034 28.08H42.761L50.795 4.80701H57.136L65.16 28.08H59.887L54.057 10.125H53.876L48.034 28.08ZM47.704 18.932H60.16V22.773H47.705V18.933L47.704 18.932ZM67.965 28.08V10.625H72.805V28.08H67.965ZM70.395 8.37501C69.7083 8.3875 69.044 8.13088 68.544 7.66001C68.036 7.17501 67.782 6.59501 67.782 5.92001C67.782 5.25401 68.036 4.68201 68.544 4.20501C69.041 3.72747 69.7068 3.46609 70.396 3.47801C71.116 3.47801 71.729 3.72001 72.236 4.20501C72.752 4.68201 73.01 5.25501 73.01 5.92101C73.01 6.59501 72.752 7.17501 72.237 7.66001C71.729 8.13701 71.115 8.37501 70.395 8.37501ZM83.115 28.365C81.789 28.365 80.588 28.023 79.512 27.341C78.444 26.652 77.596 25.641 76.967 24.307C76.346 22.967 76.035 21.322 76.035 19.376C76.035 17.376 76.357 15.713 77.001 14.386C77.645 13.053 78.501 12.057 79.569 11.398C80.6282 10.736 81.854 10.3892 83.103 10.398C84.081 10.398 84.895 10.565 85.547 10.898C86.206 11.224 86.736 11.633 87.137 12.125C87.547 12.61 87.857 13.088 88.069 13.557H88.217V4.80701H93.047V28.08H88.274V25.284H88.069C87.8159 25.808 87.4907 26.2941 87.103 26.728C86.694 27.198 86.16 27.588 85.501 27.898C84.85 28.208 84.054 28.365 83.115 28.365ZM84.649 24.512C85.429 24.512 86.089 24.3 86.626 23.876C87.171 23.444 87.588 22.841 87.876 22.069C88.171 21.296 88.319 20.391 88.319 19.353C88.319 18.315 88.175 17.413 87.887 16.648C87.599 15.883 87.183 15.292 86.637 14.876C86.092 14.459 85.429 14.251 84.649 14.251C83.853 14.251 83.183 14.466 82.637 14.898C82.092 15.33 81.679 15.928 81.399 16.694C81.119 17.459 80.979 18.345 80.979 19.353C80.979 20.368 81.119 21.266 81.399 22.046C81.687 22.819 82.099 23.425 82.637 23.864C83.183 24.296 83.853 24.512 84.649 24.512ZM102.004 28.41C100.89 28.41 99.898 28.216 99.027 27.83C98.1848 27.4608 97.4666 26.8571 96.958 26.091C96.458 25.319 96.208 24.356 96.208 23.205C96.208 22.235 96.386 21.421 96.743 20.762C97.0847 20.1168 97.5851 19.5693 98.197 19.171C98.8397 18.7564 99.5456 18.4491 100.287 18.261C101.1 18.0523 101.929 17.9082 102.765 17.83C103.585 17.7475 104.404 17.6488 105.22 17.534C105.841 17.436 106.292 17.292 106.572 17.103C106.852 16.913 106.992 16.633 106.992 16.262V16.194C106.992 15.474 106.765 14.917 106.311 14.524C105.864 14.129 105.227 13.932 104.401 13.932C103.531 13.932 102.837 14.126 102.322 14.512C101.807 14.891 101.466 15.368 101.299 15.944L96.822 15.58C97.049 14.52 97.496 13.603 98.162 12.83C98.83 12.05 99.689 11.451 100.742 11.035C101.803 10.61 103.03 10.398 104.424 10.398C105.394 10.398 106.322 10.512 107.208 10.739C108.057 10.946 108.861 11.304 109.583 11.796C110.274 12.2661 110.84 12.8977 111.231 13.636C111.633 14.379 111.833 15.269 111.833 16.307V28.08H107.243V25.66H107.106C106.824 26.2071 106.443 26.6965 105.981 27.103C105.511 27.512 104.947 27.833 104.288 28.069C103.628 28.296 102.868 28.41 102.004 28.41ZM103.39 25.069C104.102 25.069 104.731 24.929 105.277 24.649C105.799 24.3817 106.242 23.9817 106.561 23.489C106.871 23.004 107.027 22.455 107.027 21.841V19.99C106.832 20.1084 106.622 20.2002 106.402 20.263C106.113 20.3465 105.821 20.4186 105.527 20.479C105.201 20.539 104.875 20.596 104.549 20.649L103.663 20.774C103.152 20.842 102.651 20.9757 102.174 21.172C101.75 21.354 101.42 21.6 101.186 21.91C100.951 22.214 100.833 22.592 100.833 23.047C100.833 23.706 101.072 24.21 101.549 24.558C102.034 24.899 102.648 25.069 103.39 25.069Z" fill="black"/>
<path d="M123.474 28.409C121.687 28.409 120.149 28.031 118.861 27.273C117.591 26.5189 116.565 25.4145 115.906 24.092C115.224 22.736 114.883 21.175 114.883 19.41C114.883 17.622 115.228 16.054 115.918 14.705C116.615 13.349 117.603 12.292 118.883 11.535C120.163 10.77 121.687 10.387 123.452 10.387C124.974 10.387 126.308 10.664 127.452 11.217C128.596 11.77 129.501 12.547 130.168 13.547C130.834 14.547 131.202 15.721 131.27 17.069H126.702C126.572 16.198 126.232 15.497 125.679 14.967C125.133 14.429 124.418 14.16 123.531 14.16C122.781 14.16 122.126 14.365 121.565 14.774C121.012 15.175 120.581 15.762 120.27 16.534C119.96 17.308 119.804 18.244 119.804 19.342C119.804 20.455 119.955 21.402 120.258 22.182C120.569 22.962 121.005 23.558 121.565 23.967C122.125 24.376 122.781 24.58 123.531 24.58C124.084 24.58 124.581 24.467 125.02 24.24C125.468 24.0119 125.847 23.6706 126.122 23.25C126.418 22.811 126.611 22.285 126.702 21.671H131.27C131.194 23.005 130.83 24.179 130.179 25.194C129.535 26.202 128.645 26.99 127.509 27.558C126.372 28.126 125.028 28.409 123.474 28.409ZM145.562 20.637V10.614H150.403V28.069H145.756V24.899H145.574C145.193 25.9063 144.505 26.7687 143.608 27.365C142.699 27.985 141.589 28.296 140.278 28.296C139.112 28.296 138.085 28.031 137.198 27.501C136.313 26.971 135.619 26.217 135.119 25.24C134.627 24.262 134.377 23.092 134.369 21.728V10.614H139.21V20.864C139.218 21.894 139.494 22.709 140.04 23.308C140.585 23.906 141.316 24.205 142.233 24.205C142.803 24.2086 143.364 24.0722 143.869 23.808C144.383 23.5292 144.809 23.1117 145.097 22.603C145.415 22.073 145.57 21.418 145.562 20.637ZM154.276 28.069V10.614H158.969V13.66H159.151C159.469 12.577 160.003 11.758 160.753 11.205C161.503 10.645 162.366 10.365 163.344 10.365C163.586 10.365 163.848 10.38 164.128 10.41C164.408 10.44 164.654 10.482 164.866 10.535V14.83C164.557 14.7458 164.242 14.6853 163.923 14.649C163.558 14.5984 163.19 14.5717 162.821 14.569C162.109 14.569 161.473 14.724 160.912 15.035C160.365 15.332 159.91 15.7721 159.594 16.308C159.276 16.853 159.116 17.482 159.116 18.194V28.069H154.276ZM171.847 28.399C170.733 28.399 169.741 28.205 168.869 27.819C168.027 27.4495 167.309 26.8459 166.801 26.08C166.301 25.308 166.051 24.345 166.051 23.194C166.051 22.224 166.229 21.41 166.585 20.751C166.941 20.091 167.426 19.561 168.04 19.16C168.683 18.7451 169.389 18.4377 170.131 18.25C170.944 18.0413 171.772 17.8972 172.608 17.819C173.428 17.7365 174.246 17.6378 175.062 17.523C175.684 17.425 176.134 17.281 176.415 17.092C176.695 16.902 176.835 16.622 176.835 16.251V16.183C176.835 15.463 176.608 14.906 176.153 14.513C175.706 14.118 175.07 13.921 174.244 13.921C173.373 13.921 172.68 14.115 172.165 14.501C171.65 14.88 171.309 15.357 171.142 15.933L166.665 15.569C166.892 14.509 167.339 13.592 168.006 12.819C168.672 12.039 169.532 11.44 170.585 11.024C171.646 10.599 172.873 10.387 174.267 10.387C175.237 10.387 176.165 10.501 177.051 10.728C177.9 10.935 178.704 11.293 179.426 11.785C180.117 12.2553 180.682 12.8869 181.074 13.625C181.475 14.368 181.676 15.258 181.676 16.296V28.069H177.085V25.649H176.949C176.668 26.1962 176.286 26.6857 175.824 27.092C175.326 27.5176 174.751 27.8454 174.131 28.058C173.472 28.285 172.71 28.399 171.847 28.399ZM173.233 25.058C173.945 25.058 174.574 24.918 175.119 24.638C175.642 24.3711 176.085 23.9709 176.403 23.478C176.716 22.986 176.878 22.4131 176.869 21.83V19.979C176.718 20.078 176.509 20.169 176.244 20.252C175.987 20.328 175.695 20.4 175.369 20.468C175.044 20.528 174.718 20.585 174.392 20.638L173.506 20.763C172.995 20.831 172.494 20.9648 172.017 21.161C171.593 21.343 171.263 21.589 171.028 21.899C170.794 22.203 170.676 22.581 170.676 23.036C170.676 23.695 170.915 24.199 171.392 24.547C171.877 24.888 172.491 25.058 173.233 25.058Z" fill="black"/>
</g>
<defs>
<clipPath id="clip0_1_548">
<rect width="31.988" height="29.08" fill="white"/>
</clipPath>
<clipPath id="clip1_1_548">
<rect width="140" height="26" fill="white" transform="translate(42 3.08)"/>
</clipPath>
</defs>
</svg>
