<svg width="29" height="28" viewBox="0 0 29 28" fill="none" xmlns="http://www.w3.org/2000/svg">
<path d="M14.5625 7.41211C18.377 7.41211 21.5254 10.5605 21.5254 14.375C21.5254 18.25 18.377 21.3379 14.5625 21.3379C10.6875 21.3379 7.59961 18.25 7.59961 14.375C7.59961 10.5605 10.6875 7.41211 14.5625 7.41211ZM14.5625 18.916C17.0449 18.916 19.043 16.918 19.043 14.375C19.043 11.8926 17.0449 9.89453 14.5625 9.89453C12.0195 9.89453 10.0215 11.8926 10.0215 14.375C10.0215 16.918 12.0801 18.916 14.5625 18.916ZM23.4023 7.16992C23.4023 8.07812 22.6758 8.80469 21.7676 8.80469C20.8594 8.80469 20.1328 8.07812 20.1328 7.16992C20.1328 6.26172 20.8594 5.53516 21.7676 5.53516C22.6758 5.53516 23.4023 6.26172 23.4023 7.16992ZM28.0039 8.80469C28.125 11.0449 28.125 17.7656 28.0039 20.0059C27.8828 22.1855 27.3984 24.0625 25.8242 25.6973C24.25 27.2715 22.3125 27.7559 20.1328 27.877C17.8926 27.998 11.1719 27.998 8.93164 27.877C6.75195 27.7559 4.875 27.2715 3.24023 25.6973C1.66602 24.0625 1.18164 22.1855 1.06055 20.0059C0.939453 17.7656 0.939453 11.0449 1.06055 8.80469C1.18164 6.625 1.66602 4.6875 3.24023 3.11328C4.875 1.53906 6.75195 1.05469 8.93164 0.933594C11.1719 0.8125 17.8926 0.8125 20.1328 0.933594C22.3125 1.05469 24.25 1.53906 25.8242 3.11328C27.3984 4.6875 27.8828 6.625 28.0039 8.80469ZM25.0977 22.3672C25.8242 20.6113 25.6426 16.373 25.6426 14.375C25.6426 12.4375 25.8242 8.19922 25.0977 6.38281C24.6133 5.23242 23.7051 4.26367 22.5547 3.83984C20.7383 3.11328 16.5 3.29492 14.5625 3.29492C12.5645 3.29492 8.32617 3.11328 6.57031 3.83984C5.35938 4.32422 4.45117 5.23242 3.9668 6.38281C3.24023 8.19922 3.42188 12.4375 3.42188 14.375C3.42188 16.373 3.24023 20.6113 3.9668 22.3672C4.45117 23.5781 5.35938 24.4863 6.57031 24.9707C8.32617 25.6973 12.5645 25.5156 14.5625 25.5156C16.5 25.5156 20.7383 25.6973 22.5547 24.9707C23.7051 24.4863 24.6738 23.5781 25.0977 22.3672Z" fill="black"/>
</svg>
