<svg width="28" height="28" viewBox="0 0 28 28" fill="none" xmlns="http://www.w3.org/2000/svg">
<path d="M6.25 28H0.4375V9.3125H6.25V28ZM3.3125 6.8125C1.5 6.8125 0 5.25 0 3.375C0 1.5625 1.5 0.0625 3.3125 0.0625C5.1875 0.0625 6.6875 1.5625 6.6875 3.375C6.6875 5.25 5.1875 6.8125 3.3125 6.8125ZM27.9375 28H22.1875V18.9375C22.1875 16.75 22.125 14 19.125 14C16.125 14 15.6875 16.3125 15.6875 18.75V28H9.875V9.3125H15.4375V11.875H15.5C16.3125 10.4375 18.1875 8.875 21 8.875C26.875 8.875 28 12.75 28 17.75V28H27.9375Z" fill="black"/>
</svg>
