<svg width="66" height="46" viewBox="0 0 66 46" fill="none" xmlns="http://www.w3.org/2000/svg">
<path d="M21.2 46V48H22.7466L23.1357 46.5031L21.2 46ZM0.8 46L-1.04205 45.221L-2.21731 48H0.8V46ZM20 0.599995V-1.40001H18.6743L18.158 -0.179021L20 0.599995ZM33 0.599995L34.9357 1.1031L35.5863 -1.40001H33V0.599995ZM53.6 46V48H55.1466L55.5357 46.5031L53.6 46ZM33.2 46L31.358 45.221L30.1827 48H33.2V46ZM52.4 0.599995V-1.40001H51.0743L50.558 -0.179021L52.4 0.599995ZM65.4 0.599995L67.3357 1.1031L67.9863 -1.40001H65.4V0.599995ZM21.2 44H0.8V48H21.2V44ZM2.64205 46.779L21.842 1.37901L18.158 -0.179021L-1.04205 45.221L2.64205 46.779ZM20 2.59999H33V-1.40001H20V2.59999ZM31.0643 0.0968866L19.2643 45.4969L23.1357 46.5031L34.9357 1.1031L31.0643 0.0968866ZM53.6 44H33.2V48H53.6V44ZM35.042 46.779L54.242 1.37901L50.558 -0.179021L31.358 45.221L35.042 46.779ZM52.4 2.59999H65.4V-1.40001H52.4V2.59999ZM63.4643 0.0968866L51.6643 45.4969L55.5357 46.5031L67.3357 1.1031L63.4643 0.0968866Z" fill="#749EBE"/>
</svg>
